<svg width="24" height="24" viewBox="0 0 24 24" version="1.1" xmlns="http://www.w3.org/2000/svg"><path d="M 4 5 L 4 7 L 20 7 L 20 5 L 4 5 z M 4 9 L 4 11 L 20 11 L 20 9 L 4 9 z M 19.441406 12.642578 C 19.221925 12.650607 18.997175 12.74115 18.794922 12.943359 L 17.001953 14.736328 L 15.208984 12.943359 C 14.301695 12.036263 12.85511 13.41741 13.794922 14.357422 L 15.587891 16.150391 L 13.794922 17.943359 C 12.870536 18.867944 14.2844 20.281808 15.208984 19.357422 L 17.001953 17.564453 L 18.794922 19.357422 C 19.719507 20.281808 21.13337 18.867943 20.208984 17.943359 L 18.416016 16.150391 L 20.208984 14.357422 C 20.931161 13.63509 20.225267 12.613903 19.441406 12.642578 z M 4 13 L 4 15 L 12.396484 15 C 12.108219 14.548447 11.958582 14.004956 11.994141 13.505859 C 12.006755 13.328805 12.039718 13.160202 12.085938 13 L 4 13 z M 4 17 L 4 19 L 12.023438 19 C 12.012624 18.930214 12.003015 18.859604 11.998047 18.787109 C 11.956161 18.175923 12.193577 17.49587 12.626953 17 L 4 17 z " /><path d="m 13.794038,14.357277 1.792969,1.792969 -1.792969,1.792969 c -0.924387,0.924586 0.489477,2.338449 1.414062,1.414062 l 1.792969,-1.792969 1.792969,1.792969 C 19.718624,20.281664 21.132487,18.8678 20.2081,17.943215 L 18.415131,16.150246 20.2081,14.357277 c 0.924387,-0.924586 -0.489477,-2.338449 -1.414062,-1.414062 L 17.001069,14.736184 15.2081,12.943215 c -0.90729,-0.907097 -2.353875,0.474049 -1.414062,1.414062 z" /></svg>
