<svg width="24" height="24" viewBox="0 0 24 24" version="1.1" xmlns="http://www.w3.org/2000/svg"><path d="M 4 5 L 4 7 L 20 7 L 20 5 L 4 5 z M 4 9 L 4 11 L 20 11 L 20 9 L 4 9 z M 19.757812 12.546875 C 19.540604 12.553985 19.321048 12.639889 19.130859 12.830078 L 14 18 L 11.929688 15.919922 C 11.130513 15.120748 9.6754117 16.476193 10.529297 17.330078 L 13.496094 20.322266 C 13.713095 20.539266 14.279551 20.546619 14.472656 20.353516 L 20.529297 14.240234 C 21.275995 13.493536 20.533556 12.521482 19.757812 12.546875 z M 4 13 L 4 15 L 9.4960938 15 C 10.356428 13.895364 12.066306 13.881608 13.130859 15 L 14.863281 15 L 16.847656 13 L 4 13 z M 4 17 L 4 19 L 10.072266 19 C 9.4410058 18.313112 8.8375719 17.766449 8.7949219 17 L 4 17 z " /><path d="M 19.13,12.83 14,18 11.93,15.92 c -0.799175,-0.799175 -2.253886,0.556114 -1.4,1.41 l 2.966179,2.991823 c 0.217001,0.217001 0.783202,0.224454 0.976307,0.03135 L 20.53,14.24 c 0.955775,-0.955775 -0.530564,-2.279436 -1.4,-1.41 z" /></svg>
