<svg width="24" height="24" viewBox="0 0 24 24" version="1.1" xmlns="http://www.w3.org/2000/svg"><path d="M 11.152112,2.7636466 C 9.2195249,2.9324316 7.4731941,3.7086445 6.0638399,4.8816999 L 7.262147,6.080007 C 8.3784462,5.1808183 9.7275531,4.6187806 11.152112,4.4597375 Z m 1.68785,0 v 1.6960909 c 1.45999,0.1603457 2.792863,0.7425878 3.889966,1.6202695 L 17.928235,4.8816999 C 16.518881,3.7086445 14.772549,2.9408708 12.839962,2.7636466 Z M 4.8737742,6.0717655 C 3.7007189,7.4811198 2.9329451,9.2274505 2.755721,11.160038 H 4.4518118 C 4.6121576,9.7000484 5.1943996,8.3671748 6.0720814,7.2700727 Z m 14.2445258,0 -1.198307,1.1983072 c 0.899189,1.1162992 1.461227,2.465406 1.62027,3.8899653 h 1.69609 C 21.05913,9.2274505 20.291356,7.4811198 19.1183,6.0717655 Z M 11.580667,8.628264 c -1.6662241,0 -2.9603286,1.1404487 -2.9603286,2.932308 0,1.877861 1.3773865,2.975165 2.9487916,2.975165 0.426957,0 1.494156,-0.09007 2.152667,-0.929636 l 0.179663,0.837332 h 1.648292 l -0.178016,-0.75162 V 8.628264 L 13.721797,9.0617645 V 9.5364721 C 13.48266,9.250015 12.820473,8.628264 11.580667,8.628264 Z m 0.421963,1.2708319 c 0.757056,0 1.719167,0.4842391 1.719167,1.6829051 0,1.159356 -0.888886,1.682905 -1.719167,1.682905 -0.797995,0 -1.709277,-0.54796 -1.709277,-1.704334 0,-1.100145 0.8569,-1.6614761 1.709277,-1.6614761 z m 7.150285,4.6283991 c -1.038028,2.945297 -3.848693,5.07179 -7.156877,5.07179 A 7.5615654,7.5615654 0 0 1 5.6995677,16.223586 H 7.7764136 V 14.535737 H 2.7128654 v 5.063548 h 1.6878495 v -2.277938 c 1.6794101,2.396747 4.4474832,3.965787 7.5953231,3.965787 4.109913,0 7.59486,-2.675703 8.810111,-6.380532 z" /></svg>
