<svg width="24" height="24" viewBox="0 0 24 24" version="1.1" xmlns="http://www.w3.org/2000/svg"><path d="m 6.71428,20.900366 c -0.4538159,0 -0.8399183,-0.162036 -1.1583072,-0.48611 C 5.2375837,20.090183 5.0783893,19.697189 5.0783893,19.235274 V 5.4037469 H 4.8151922 c -0.2301779,0 -0.4235881,-0.080407 -0.5802304,-0.2412219 C 4.0783196,5.0017103 3.9999985,4.8031768 3.9999985,4.5669241 c 0,-0.2362527 0.078321,-0.4333197 0.2349633,-0.5912017 C 4.3916041,3.8176776 4.5850143,3.7386553 4.8151922,3.7386553 h 3.9290563 c 0,-0.2390224 0.078401,-0.4385336 0.2352031,-0.5985337 C 9.1360934,2.9802845 9.3294239,2.900366 9.5594424,2.900366 h 4.8753696 c 0.230021,0 0.42343,0.081059 0.580231,0.2431772 0.156642,0.162281 0.234964,0.3606518 0.234964,0.5951121 h 3.934798 c 0.230178,0 0.423588,0.080407 0.58023,0.2412219 0.156643,0.1608147 0.234964,0.3593482 0.234964,0.5956009 0,0.2362526 -0.07832,0.4334011 -0.234964,0.591446 -0.156642,0.1578819 -0.350052,0.2368228 -0.58023,0.2368228 H 18.921609 V 19.235274 c 0,0.461915 -0.159194,0.854909 -0.477584,1.178982 -0.318389,0.324074 -0.704491,0.48611 -1.158307,0.48611 z M 17.285716,5.4037469 H 6.71428 V 19.235274 h 10.571436 z m -10.571436,0 V 19.235274 Z m 5.285719,8.0945011 2.251294,2.318127 c 0.167171,0.1745 0.369992,0.264847 0.608464,0.271038 0.238631,0.0062 0.443447,-0.08009 0.614445,-0.258819 0.16701,-0.183788 0.250515,-0.392261 0.250515,-0.625418 0,-0.232993 -0.0835,-0.436823 -0.250515,-0.611486 L 13.22291,12.249124 15.474203,9.900692 c 0.16701,-0.170754 0.250515,-0.373849 0.250515,-0.609287 0,-0.2356009 -0.0835,-0.4407332 -0.250515,-0.6153973 -0.170997,-0.1705906 -0.375814,-0.2558859 -0.614445,-0.2558859 -0.238472,0 -0.441294,0.085295 -0.608464,0.2558859 L 12,11 9.7726323,8.6760077 C 9.6054616,8.5054171 9.4035981,8.4201218 9.1670395,8.4201218 c -0.2367188,0 -0.4405766,0.085295 -0.6115751,0.2558859 -0.1670107,0.1746641 -0.2505161,0.3838698 -0.2505161,0.6276171 0,0.2435852 0.083505,0.4507532 0.2505161,0.6215072 l 2.2455516,2.323992 -2.2455516,2.323992 c -0.170839,0.170753 -0.2553014,0.376945 -0.2533872,0.618574 0.00191,0.241792 0.086377,0.450019 0.2533872,0.624685 0.1719556,0.17059 0.3760532,0.255885 0.6122922,0.255885 0.2360808,0 0.4396189,-0.08529 0.6106174,-0.255885 z" /></svg>
