<svg width="12" height="18" viewBox="0 0 12 18" version="1.1" xmlns="http://www.w3.org/2000/svg"><path d="m 5,15 c 0,1.1 -0.9,2 -2,2 -1.1,0 -2,-0.9 -2,-2 0,-1.1 0.9,-2 2,-2 1.1,0 2,0.9 2,2 z M 3,7 C 1.9,7 1,7.9 1,9 1,10.1 1.9,11 3,11 4.1,11 5,10.1 5,9 5,7.9 4.1,7 3,7 Z M 3,1 C 1.9,1 1,1.9 1,3 1,4.1 1.9,5 3,5 4.1,5 5,4.1 5,3 5,1.9 4.1,1 3,1 Z M 9,5 C 10.1,5 11,4.1 11,3 11,1.9 10.1,1 9,1 7.9,1 7,1.9 7,3 7,4.1 7.9,5 9,5 Z M 9,7 C 7.9,7 7,7.9 7,9 c 0,1.1 0.9,2 2,2 1.1,0 2,-0.9 2,-2 C 11,7.9 10.1,7 9,7 Z m 0,6 c -1.1,0 -2,0.9 -2,2 0,1.1 0.9,2 2,2 1.1,0 2,-0.9 2,-2 0,-1.1 -0.9,-2 -2,-2 z" /></svg>
