<svg width="24" height="24" viewBox="0 0 24 24" version="1.1" xmlns="http://www.w3.org/2000/svg"><path d="m 17.5,6.75 c -0.199099,-4.882e-4 -0.390222,0.078209 -0.53125,0.21875 L 14.5,9.4375 13.03125,7.96875 c -0.293102,-0.2941219 -0.769398,-0.2941219 -1.0625,0 -0.294122,0.2931024 -0.294122,0.7693976 0,1.0625 l 2,2 c 0.29312,0.29408 0.76938,0.29408 1.0625,0 l 3,-3 c 0.294122,-0.2931024 0.294122,-0.7693976 0,-1.0625 C 17.890222,6.8282094 17.699099,6.7495118 17.5,6.75 Z M 6,8.25 v 1.5 h 3 v -1.5 z m 7,4 c -0.199099,-4.88e-4 -0.390222,0.07821 -0.53125,0.21875 -0.294122,0.293102 -0.294122,0.769398 0,1.0625 L 13.9375,15 12.46875,16.46875 c -0.294122,0.293102 -0.294122,0.769398 0,1.0625 0.293102,0.294122 0.769398,0.294122 1.0625,0 L 15,16.0625 l 1.46875,1.46875 c 0.293102,0.294122 0.769398,0.294122 1.0625,0 0.294122,-0.293102 0.294122,-0.769398 0,-1.0625 L 16.0625,15 17.53125,13.53125 c 0.294122,-0.293102 0.294122,-0.769398 0,-1.0625 C 17.390222,12.328209 17.199099,12.249512 17,12.25 c -0.199099,-4.88e-4 -0.390222,0.07821 -0.53125,0.21875 L 15,13.9375 13.53125,12.46875 C 13.390222,12.328209 13.199099,12.249512 13,12.25 Z m -7,2 v 1.5 h 3 v -1.5 z" /></svg>
