<svg width="24" height="24" viewBox="0 0 24 24" version="1.1" xmlns="http://www.w3.org/2000/svg"><path d="M 18.539062 4.2265625 C 18.065677 4.2334911 17.583196 4.4168042 17.15625 4.84375 L 14.84375 7.15625 L 17.962891 10.275391 L 20.275391 7.9628906 C 21.800197 6.4380845 20.229724 4.2018174 18.539062 4.2265625 z M 3 7 L 3 9 L 5 9 L 5 7 L 3 7 z M 7 7 L 7 9 L 11.232422 9 L 13.076172 7.15625 L 13.232422 7 L 7 7 z M 13.953125 8.046875 L 7.0742188 14.925781 L 7.0742188 18.046875 L 10.193359 18.046875 L 17.074219 11.166016 L 13.953125 8.046875 z M 13.953125 10.400391 L 14.71875 11.166016 L 9.5019531 16.382812 L 8.7363281 15.617188 L 13.953125 10.400391 z M 3 11 L 3 13 L 5 13 L 5 11 L 3 11 z M 7 11 L 7 13 L 7.2304688 13 L 9.2304688 11 L 7 11 z M 19.005859 11 L 18.839844 11.166016 L 17.962891 12.042969 L 17.005859 13 L 21 13 L 21 11 L 19.005859 11 z M 3 15 L 3 17 L 5 17 L 5 15 L 3 15 z M 15.005859 15 L 13.007812 17 L 21 17 L 21 15 L 15.005859 15 z " /></svg>
