<?xml version="1.0" encoding="UTF-8" standalone="no"?>
<svg
   width="24"
   height="24"
   viewBox="0 0 24 24"
   version="1.1"
   id="svg4"
   sodipodi:docname="page_add.svg"
   inkscape:version="1.2.2 (b0a8486541, 2022-12-01)"
   xmlns:inkscape="http://www.inkscape.org/namespaces/inkscape"
   xmlns:sodipodi="http://sodipodi.sourceforge.net/DTD/sodipodi-0.dtd"
   xmlns="http://www.w3.org/2000/svg"
   xmlns:svg="http://www.w3.org/2000/svg">
  <defs
     id="defs8" />
  <sodipodi:namedview
     id="namedview6"
     pagecolor="#ffffff"
     bordercolor="#000000"
     borderopacity="0.25"
     inkscape:showpageshadow="2"
     inkscape:pageopacity="0.0"
     inkscape:pagecheckerboard="0"
     inkscape:deskcolor="#d1d1d1"
     showgrid="true"
     showguides="true"
     inkscape:zoom="16"
     inkscape:cx="5.5625"
     inkscape:cy="9.71875"
     inkscape:window-width="1920"
     inkscape:window-height="1008"
     inkscape:window-x="0"
     inkscape:window-y="0"
     inkscape:window-maximized="1"
     inkscape:current-layer="svg4">
    <inkscape:grid
       type="xygrid"
       id="grid237" />
  </sodipodi:namedview>
  <path
     id="path2"
     style="stroke-width:1.03515"
     d="m 4.8516846,5.0273437 c -0.9855077,0 -1.8027344,0.8255296 -1.8027344,1.8203125 v 9.3593758 c 0,0.994782 0.8172267,1.820312 1.8027344,1.820312 H 14.04895 V 16.466797 H 4.8516846 c -0.1560624,0 -0.2578125,-0.102238 -0.2578125,-0.259765 V 6.8476562 c 0,-0.1575313 0.1017495,-0.2597656 0.2578125,-0.2597656 H 18.246216 c 0.156061,0 0.257812,0.1022372 0.257812,0.2597656 V 12.027344 H 20.04895 V 6.8476562 c 0,-0.9947829 -0.817226,-1.8203125 -1.802734,-1.8203125 z m 1.03125,2.2753906 c -0.3200736,0 -0.5800782,0.2608987 -0.5800782,0.5839844 0,0.3230859 0.2600046,0.5859375 0.5800782,0.5859375 0.3200734,0 0.578125,-0.2628516 0.578125,-0.5859375 0,-0.3230857 -0.2580516,-0.5839844 -0.578125,-0.5839844 z m 1.7382812,0 c -0.3200734,0 -0.5800781,0.2608987 -0.5800781,0.5839844 0,0.3230859 0.2600047,0.5859375 0.5800781,0.5859375 0.3200736,0 0.5800781,-0.2628516 0.5800782,-0.5859375 0,-0.3230857 -0.2600046,-0.5839844 -0.5800782,-0.5839844 z m 1.7382813,0 c -0.3200732,0 -0.5800781,0.2608987 -0.5800781,0.5839844 0,0.3230859 0.2600049,0.5859375 0.5800781,0.5859375 0.3200734,0 0.5800781,-0.2628516 0.5800781,-0.5859375 0,-0.3230857 -0.2600047,-0.5839844 -0.5800781,-0.5839844 z M 16.04895,9.0273437 c -0.552285,0 -1,0.4477153 -1,1.0000003 v 3 h -3 c -0.552285,0 -1,0.447715 -1,1 0,0.552284 0.447715,1 1,1 h 3 v 3 c 0,0.552284 0.447715,1 1,1 0.552285,0 1,-0.447716 1,-1 v -3 h 3 c 0.552285,0 1,-0.447716 1,-1 0,-0.552285 -0.447715,-1 -1,-1 h -3 v -3 c 0,-0.552285 -0.447715,-1.0000003 -1,-1.0000003 z m 2.455078,7.0000003 c -0.0044,0.395322 -0.07545,0.439453 -0.455078,0.439453 v 1.560547 h 0.197266 c 0.985508,0 1.802734,-0.82553 1.802734,-1.820312 v -0.179688 z"
     sodipodi:nodetypes="ssssccssssssccsssssssssssssssssssscssscssscssscsscccsscc" />
  <g
     id="path2676"
     transform="translate(0,-1)">
    <path
       style="color:#000000;fill:#6ceb81;fill-opacity:0.416847;stroke-width:2;stroke-linecap:round;stroke-linejoin:round;-inkscape-stroke:none;paint-order:fill markers stroke"
       d="m 15,11 v 8"
       id="path2688" />
  </g>
  <g
     id="g2717"
     transform="translate(0,-1)"
     style="fill:none;fill-opacity:0.65041;stroke:#717171;stroke-opacity:0.65041;stroke-width:2.00000021;stroke-dasharray:none" />
</svg>
