<?xml version="1.0" encoding="UTF-8" standalone="no"?>
<svg
   width="24"
   height="24"
   viewBox="0 0 24 24"
   version="1.1"
   id="svg4"
   sodipodi:docname="page_edit.svg"
   inkscape:version="1.2.2 (b0a8486541, 2022-12-01)"
   xmlns:inkscape="http://www.inkscape.org/namespaces/inkscape"
   xmlns:sodipodi="http://sodipodi.sourceforge.net/DTD/sodipodi-0.dtd"
   xmlns="http://www.w3.org/2000/svg"
   xmlns:svg="http://www.w3.org/2000/svg">
  <defs
     id="defs8" />
  <sodipodi:namedview
     id="namedview6"
     pagecolor="#ffffff"
     bordercolor="#000000"
     borderopacity="0.25"
     inkscape:showpageshadow="2"
     inkscape:pageopacity="0.0"
     inkscape:pagecheckerboard="0"
     inkscape:deskcolor="#d1d1d1"
     showgrid="true"
     showguides="true"
     inkscape:zoom="22.627417"
     inkscape:cx="-3.5355339"
     inkscape:cy="13.368738"
     inkscape:window-width="1920"
     inkscape:window-height="1008"
     inkscape:window-x="0"
     inkscape:window-y="0"
     inkscape:window-maximized="1"
     inkscape:current-layer="svg4">
    <inkscape:grid
       type="xygrid"
       id="grid237" />
    <sodipodi:guide
       position="10.000565,7.5579987"
       orientation="0,-1"
       id="guide1135"
       inkscape:locked="false" />
  </sodipodi:namedview>
  <path
     id="path2"
     style="stroke-width:1.03515"
     d="m 4.5067101,4.9976194 c -0.9855077,0 -1.8027344,0.8255296 -1.8027344,1.8203125 v 9.3593751 c 0,0.994782 0.8172267,1.820312 1.8027344,1.820312 h 6.1972659 v -1.558594 l -6.1972659,-0.002 C 4.3506477,16.43696 4.2488976,16.334834 4.2488976,16.177307 V 6.8179319 c 0,-0.1575313 0.1017495,-0.2597656 0.2578125,-0.2597656 H 17.901242 c 0.156061,0 0.257812,0.1022372 0.257812,0.2597656 v 2.2304687 c 0.65199,-0.7341115 0.965927,-0.9628336 1.544922,-0.9960937 v -1.234375 c 0,-0.9947829 -0.817226,-1.8203125 -1.802734,-1.8203125 z m 1.03125,2.2753906 c -0.3200736,0 -0.5800782,0.2608987 -0.5800782,0.5839844 0,0.3230859 0.2600046,0.5859375 0.5800782,0.5859375 0.3200734,0 0.578125,-0.2628516 0.578125,-0.5859375 0,-0.3230857 -0.2580516,-0.5839844 -0.578125,-0.5839844 z m 1.7382812,0 c -0.3200734,0 -0.5800781,0.2608987 -0.5800781,0.5839844 0,0.3230859 0.2600047,0.5859375 0.5800781,0.5859375 0.3200736,0 0.5800781,-0.2628516 0.5800782,-0.5859375 0,-0.3230857 -0.2600046,-0.5839844 -0.5800782,-0.5839844 z m 1.7382813,0 c -0.3200732,0 -0.5800781,0.2608987 -0.5800781,0.5839844 0,0.3230859 0.2600049,0.5859375 0.5800781,0.5859375 0.3200734,0 0.5800781,-0.2628516 0.5800781,-0.5859375 C 9.5946007,7.5339087 9.334596,7.27301 9.0145226,7.27301 Z M 20.133664,8.9976194 c -0.31559,0.00462 -0.637246,0.1274787 -0.921876,0.4121094 l -1.541015,1.5410152 2.080078,2.080078 1.541016,-1.541015 c 1.016537,-1.016536 -0.0311,-2.5086843 -1.158203,-2.4921876 z m -3.056641,2.5468746 -5.373047,5.373047 v 2.080078 h 2.080078 l 5.373047,-5.373047 z m 0,1.568359 0.511719,0.511719 -4.265625,4.263672 -0.509766,-0.509766 z m 2.626953,1.378907 -3.505859,3.505859 h 1.703125 c 0.985508,0 1.802734,-0.82553 1.802734,-1.820312 z"
     sodipodi:nodetypes="sssscccsssssccssssssssssssssssssssccsscccccccccccccssc" />
  <g
     id="path572" />
</svg>
