<svg width="24" height="24" viewBox="0 0 24 24" version="1.1"  xmlns="http://www.w3.org/2000/svg"><path d="M 20,9 V 6.7990488 c 0,-1.2972489 -2,-1.3245804 -2,0 V 9 h -2.143876 c -1.371473,0 -1.286486,2 0,2 H 18 v 2.115339 c 0,1.379202 2,1.388597 2,0 V 11 h 2.001189 c 1.360308,0 1.34245,-2 0,-2 z M 9,12 c 2.21,0 4,-1.79 4,-4 C 13,5.79 11.21,4 9,4 6.79,4 5,5.79 5,8 c 0,2.21 1.79,4 4,4 z M 9,6 c 1.1,0 2,0.9 2,2 0,1.1 -0.9,2 -2,2 C 7.9,10 7,9.1 7,8 7,6.9 7.9,6 9,6 Z m 6.39,8.56 C 13.71,13.7 11.53,13 9,13 6.47,13 4.29,13.7 2.61,14.56 1.6150024,15.072481 0.99259709,16.100803 1,17.22 V 20 H 17 V 17.22 C 17,16.1 16.39,15.07 15.39,14.56 Z M 15,18 H 3 V 17.22 C 3,16.84 3.2,16.5 3.52,16.34 4.71,15.73 6.63,15 9,15 c 2.37,0 4.29,0.73 5.48,1.34 0.32,0.16 0.52,0.5 0.52,0.88 z" /></svg>
