<svg width="24" height="24" viewBox="0 0 24 24" version="1.1" id="svg1" xmlns="http://www.w3.org/2000/svg"><path d="M 10,4 C 7.79,4 6,5.79 6,8 c 0,2.21 1.79,4 4,4 2.21,0 4,-1.79 4,-4 0,-2.21 -1.79,-4 -4,-4 z m 0,2 c 1.1,0 2,0.9 2,2 0,1.1 -0.9,2 -2,2 C 8.9,10 8,9.1 8,8 8,6.9 8.9,6 10,6 Z m 5.292969,8.707031 1.792969,1.792969 -1.792969,1.792969 c -0.924387,0.924586 0.489477,2.338449 1.414062,1.414062 L 18.5,17.914062 l 1.792969,1.792969 c 0.924586,0.924387 2.338449,-0.489477 1.414062,-1.414062 L 19.914062,16.5 21.707031,14.707031 c 0.924387,-0.924586 -0.489477,-2.338449 -1.414062,-1.414062 L 18.5,15.085938 16.707031,13.292969 c -0.90729,-0.907097 -2.353875,0.474049 -1.414062,1.414062 z M 10,14 c -2.67,0 -8,1.34 -8,4 v 2 h 11.994141 c -0.312581,-0.630027 -0.312581,-1.369973 0,-2 H 4 c 0.2,-0.71 3.3,-2 6,-2 1.699882,0 3.55234,0.512345 4.746094,1.070312 L 15.316406,16.5 C 14.194354,15.371412 14.201738,15.361247 13.841797,14.607422 12.471638,14.205126 11.035968,14 10,14 Z" /></svg>
