<svg width="24" height="24" viewBox="0 0 24 24" version="1.1" xmlns="http://www.w3.org/2000/svg"><path d="m 11,12 c 2.21,0 4,-1.79 4,-4 C 15,5.79 13.21,4 11,4 8.79,4 7,5.79 7,8 c 0,2.21 1.79,4 4,4 z m 0,-6 c 1.1,0 2,0.9 2,2 0,1.1 -0.9,2 -2,2 C 9.9,10 9,9.1 9,8 9,6.9 9.9,6 11,6 Z M 5,18 c 0.2,-0.63 2.57,-1.68 4.96,-1.94 0.299501,-1.161316 0.979501,-1.827983 2.04,-2 C 9.3500625,13.75771 3,15.03015 3,18 v 2 h 9 L 10,18 Z M 20.6,12.5 15.47,17.67 13.4,15.59 C 12.600825,14.790825 11.146114,16.146114 12,17 l 2.966179,2.991823 c 0.217001,0.217001 0.783202,0.224454 0.976307,0.03135 L 22,13.91 c 0.955775,-0.955775 -0.530564,-2.279436 -1.4,-1.41 z" /></svg>
