<svg width="24" height="24" viewBox="0 0 24 24" version="1.1" xmlns="http://www.w3.org/2000/svg"><path d="M 17.419922 3.2265625 C 16.946537 3.2334911 16.464055 3.4168042 16.037109 3.84375 L 13.724609 6.15625 L 16.84375 9.2753906 L 19.15625 6.9628906 C 20.681056 5.4380845 19.110584 3.2018174 17.419922 3.2265625 z M 4 5 L 4 7 L 11.113281 7 L 11.957031 6.15625 L 12.833984 5.2792969 L 13.113281 5 L 4 5 z M 12.833984 7.046875 L 5.953125 13.927734 L 5.953125 17.046875 L 9.0722656 17.046875 L 15.953125 10.166016 L 12.833984 7.046875 z M 4 9 L 4 11 L 7.1113281 11 L 9.1132812 9 L 4 9 z M 18.886719 9 L 17.720703 10.166016 L 16.886719 11 L 20 11 L 20 9 L 18.886719 9 z M 12.833984 9.4003906 L 13.599609 10.166016 L 8.3828125 15.382812 L 7.6171875 14.617188 L 12.833984 9.4003906 z M 4 13 L 4 15 L 4.703125 15 L 4.703125 13.408203 L 5.1113281 13 L 4 13 z M 14.886719 13 L 12.888672 15 L 20 15 L 20 13 L 14.886719 13 z M 4 17 L 4 19 L 14 19 L 14 17 L 10.888672 17 L 9.5917969 18.296875 L 4.703125 18.296875 L 4.703125 17 L 4 17 z " /></svg>
