<svg width="24" height="24" viewBox="0 0 24 24" version="1.1" xmlns="http://www.w3.org/2000/svg"><path d="m 6.7601533,20.845132 c -0.4538507,0 -0.839983,-0.162037 -1.158397,-0.48611 C 5.283344,20.034948 5.1241378,19.641954 5.1241378,19.18004 V 5.3485132 H 4.8609193 c -0.2301951,0 -0.4236199,-0.080407 -0.5802745,-0.2412223 C 4.123991,4.9464766 4.0456641,4.7479431 4.0456641,4.5116904 c 0,-0.2362527 0.078327,-0.4333198 0.2349807,-0.5912012 0.1566546,-0.158045 0.3500794,-0.2370674 0.5802745,-0.2370674 h 3.9293568 c 0,-0.2390225 0.078407,-0.4385339 0.2352206,-0.5985339 0.1566538,-0.159837 0.349999,-0.2397555 0.5800356,-0.2397555 h 4.8757417 c 0.230037,0 0.423462,0.081059 0.580275,0.243177 0.156653,0.1622809 0.23498,0.3606517 0.23498,0.5951124 h 3.935101 c 0.230195,0 0.42362,0.080407 0.580275,0.2412222 0.156653,0.1608142 0.23498,0.3593477 0.23498,0.5956004 0,0.2362527 -0.07833,0.4334013 -0.23498,0.5914457 -0.156655,0.157882 -0.35008,0.236823 -0.580275,0.236823 H 18.968413 V 19.18004 c 0,0.461914 -0.159207,0.854908 -0.47762,1.178982 -0.318414,0.324073 -0.704546,0.48611 -1.158396,0.48611 z M 17.332396,5.3485132 H 6.7601533 V 19.18004 H 17.332397 Z M 10.038644,17.124887 c 0.217911,0 0.399451,-0.07536 0.54462,-0.226068 0.145168,-0.150875 0.217752,-0.335479 0.217752,-0.55381 V 8.1532387 c 0,-0.2183304 -0.07426,-0.4028519 -0.222777,-0.5535647 -0.148518,-0.1508756 -0.330217,-0.2263135 -0.545097,-0.2263135 -0.219827,0 -0.4023246,0.075438 -0.5474931,0.2263135 C 9.3404802,7.7503867 9.2678958,7.9349083 9.2678958,8.1532387 v 8.1917703 c 0,0.21833 0.07394,0.402933 0.2218209,0.553809 0.1480396,0.150713 0.3310155,0.226069 0.5489273,0.226069 z m 4.027703,0 c 0.215201,0 0.396342,-0.07536 0.543425,-0.226068 0.147083,-0.150875 0.220624,-0.335479 0.220624,-0.55381 V 8.1532387 c 0,-0.2183304 -0.07474,-0.4028519 -0.224213,-0.5535647 -0.149476,-0.1508756 -0.332372,-0.2263135 -0.548688,-0.2263135 -0.216477,0 -0.398257,0.075438 -0.54534,0.2263135 -0.147081,0.1507128 -0.220622,0.3352343 -0.220622,0.5535647 v 8.1917703 c 0,0.21833 0.0753,0.402933 0.225887,0.553809 0.150593,0.150713 0.333568,0.226069 0.548927,0.226069 z M 6.7601533,5.3485132 V 19.18004 Z" /></svg>
