<svg width="24" height="24" viewBox="0 0 24 24" version="1.1" xmlns="http://www.w3.org/2000/svg"><path d="m 12,6 c 3.752231,-0.012475 6.360091,2.1250788 8,5.5 C 18.35,14.87 15.79,17 12,17 8.21,17 5.65,14.841463 4,11.471463 5.6399093,8.0965414 8.2477687,5.9875248 12,6 M 12,4 C 7,4 3.73,7.0529251 2,11.442925 3.73,15.832925 7,19 12,19 17,19 20.27,15.89 22,11.5 20.27,7.11 17,4 12,4 Z m 0,5 c 3.333332,0 3.333332,5 0,5 C 8.6666681,14 8.6666681,9 12,9 M 12,7 C 9.52,7 7.5,9.02 7.5,11.5 7.5,13.98 9.52,16 12,16 14.48,16 16.5,13.98 16.5,11.5 16.5,9.02 14.48,7 12,7 Z" /></svg>
