<svg width="24" height="24" viewBox="0 0 24 24" version="1.1" xmlns="http://www.w3.org/2000/svg"><path d="m 12,6 c 3.752231,-0.012475 6.360091,2.1250788 8,5.5 -0.579997,1.194809 -1,1.892384 -1.910408,2.799592 l 1.365806,1.365806 C 20.381359,14.72266 21.31,13.26 22,11.5 20.27,7.11 17,4 12,4 10.73,4 9.51,4.2 8.36,4.57 l 1.65,1.65 C 10.66,6.09 11.32,6 12,6 Z M 10.93,7.14 13,9.21 c 0.57,0.25 1.03,0.71 1.28,1.28 l 2.07,2.07 c 0.08,-0.34 0.14,-0.7 0.14,-1.07 C 16.5,9.01 14.48,7 12,7 11.63,7 11.28,7.05 10.93,7.14 Z M 2.01,3.87 5,6.86 C 3.5358175,8.4294008 2.7662494,9.550285 2,11.5 3.73,15.89 7,19 12,19 c 1.52,0 2.8,-0.39266 4.14,-1 l 3.6,3.6 1.41,-1.41 L 3.42,2.45 Z m 7.5,7.5 2.61,2.61 C 12.08,13.99 12.04,14 12,14 10.619288,14 9.5,12.880712 9.5,11.5 9.5,11.45 9.51,11.42 9.51,11.37 Z M 6.3989417,8.2589417 7.86,9.72 c -0.2370928,0.563515 -0.3594774,1.168639 -0.36,1.78 0.00564,3.226469 3.300617,5.402103 6.27,4.14 l 0.846328,0.836328 C 13.712891,16.794453 12.95,17 12,17 8.2477687,17.012475 5.6399093,14.874921 4,11.5 4.7642093,10.091403 5.5099881,9.1860761 6.3989417,8.2589417 Z" /></svg>
