<svg width="24" height="14" viewBox="0 0 24 14" version="1.1" xmlns="http://www.w3.org/2000/svg"><path id="e11" class="elf-logo-letter-e" d="M 0.30078125 0 C 0.13458125 0 0 0.13458125 0 0.30078125 L 0 13.699219 C 0 13.865419 0.13458125 14 0.30078125 14 L 3.6992188 14 C 3.8654187 14 4 13.865419 4 13.699219 L 4 0.30078125 C 4 0.13458125 3.8654187 0 3.6992188 0 L 0.30078125 0 z M 1.1503906 1 L 2.8496094 1 C 2.9327094 1 3 1.0672906 3 1.1503906 L 3 12.849609 C 3 12.932709 2.9327094 13 2.8496094 13 L 1.1503906 13 C 1.0672906 13 1 12.932709 1 12.849609 L 1 1.1503906 C 1 1.0672906 1.0672906 1 1.1503906 1 z " /><path id="e21" class="elf-logo-letter-e" d="M 5.3007812 0 C 5.1345813 0 5 0.13458125 5 0.30078125 L 5 3.6992188 C 5 3.8654187 5.1345813 4 5.3007812 4 L 8.6992188 4 C 8.8654187 4 9 3.8654187 9 3.6992188 L 9 0.30078125 C 9 0.13458125 8.8654187 0 8.6992188 0 L 5.3007812 0 z M 6.1347656 1 C 6.1398204 0.99948972 6.1451969 1 6.1503906 1 L 7.8496094 1 C 7.9327094 1 8 1.0672906 8 1.1503906 L 8 2.8496094 C 8 2.9327094 7.9327094 3 7.8496094 3 L 6.1503906 3 C 6.0672906 3 6 2.9327094 6 2.8496094 L 6 1.1503906 C 6 1.0724844 6.0589435 1.0076542 6.1347656 1 z " /><path id="e22" class="elf-logo-letter-e" d="M 5.3007812 5 C 5.1345813 5 5 5.1345813 5 5.3007812 L 5 8.6992188 C 5 8.8654187 5.1345813 9 5.3007812 9 L 8.6992188 9 C 8.8654187 9 9 8.8654187 9 8.6992188 L 9 5.3007812 C 9 5.1345813 8.8654187 5 8.6992188 5 L 5.3007812 5 z M 6.1347656 6 C 6.1398204 5.9994897 6.1451969 6 6.1503906 6 L 7.8496094 6 C 7.9327094 6 8 6.0672906 8 6.1503906 L 8 7.8496094 C 8 7.9327094 7.9327094 8 7.8496094 8 L 6.1503906 8 C 6.0672906 8 6 7.9327094 6 7.8496094 L 6 6.1503906 C 6 6.0724844 6.0589435 6.0076542 6.1347656 6 z " /><path id="e23" class="elf-logo-letter-e" d="M 5.3007812 10 C 5.1345813 10 5 10.134581 5 10.300781 L 5 13.699219 C 5 13.865419 5.1345813 14 5.3007812 14 L 8.6992188 14 C 8.8654187 14 9 13.865419 9 13.699219 L 9 10.300781 C 9 10.134581 8.8654187 10 8.6992188 10 L 5.3007812 10 z M 6.1347656 11 C 6.1398204 10.99949 6.1451969 11 6.1503906 11 L 7.8496094 11 C 7.9327094 11 8 11.067291 8 11.150391 L 8 12.849609 C 8 12.932709 7.9327094 13 7.8496094 13 L 6.1503906 13 C 6.0672906 13 6 12.932709 6 12.849609 L 6 11.150391 C 6 11.072484 6.0589435 11.007654 6.1347656 11 z " /><path id="l11" class="elf-logo-letter-l" d="M 10.300781 0 C 10.134581 0 10 0.13458125 10 0.30078125 L 10 13.699219 C 10 13.865419 10.134581 14 10.300781 14 L 13.699219 14 C 13.865419 14 14 13.865419 14 13.699219 L 14 0.30078125 C 14 0.13458125 13.865419 0 13.699219 0 L 10.300781 0 z M 11.150391 1 L 12.849609 1 C 12.932709 1 13 1.0672906 13 1.1503906 L 13 12.849609 C 13 12.932709 12.932709 13 12.849609 13 L 11.150391 13 C 11.067291 13 11 12.932709 11 12.849609 L 11 1.1503906 C 11 1.0672906 11.067291 1 11.150391 1 z " /><path id="l21" class="elf-logo-letter-l" d="M 15.300781 10 C 15.134581 10 15 10.134581 15 10.300781 L 15 13.699219 C 15 13.865419 15.134581 14 15.300781 14 L 18.699219 14 C 18.865419 14 19 13.865419 19 13.699219 L 19 10.300781 C 19 10.134581 18.865419 10 18.699219 10 L 15.300781 10 z M 16.134766 11 C 16.13982 10.99949 16.145197 11 16.150391 11 L 17.849609 11 C 17.932709 11 18 11.067291 18 11.150391 L 18 12.849609 C 18 12.932709 17.932709 13 17.849609 13 L 16.150391 13 C 16.067291 13 16 12.932709 16 12.849609 L 16 11.150391 C 16 11.072484 16.058943 11.007654 16.134766 11 z " /><path id="f11" class="elf-logo-letter-f" d="M 15.300781 0 C 15.134581 0 15 0.13458125 15 0.30078125 L 15 3.6992188 C 15 3.8654187 15.134581 4 15.300781 4 L 18.699219 4 C 18.865419 4 19 3.8654187 19 3.6992188 L 19 0.30078125 C 19 0.13458125 18.865419 0 18.699219 0 L 15.300781 0 z M 16.134766 1 C 16.13982 0.99948972 16.145197 1 16.150391 1 L 17.849609 1 C 17.932709 1 18 1.0672906 18 1.1503906 L 18 2.8496094 C 18 2.9327094 17.932709 3 17.849609 3 L 16.150391 3 C 16.067291 3 16 2.9327094 16 2.8496094 L 16 1.1503906 C 16 1.0724844 16.058943 1.0076542 16.134766 1 z " /><path id="f12" class="elf-logo-letter-f" d="M 15.300781 5 C 15.134581 5 15 5.1345813 15 5.3007812 L 15 8.6992188 C 15 8.8654187 15.134581 9 15.300781 9 L 18.699219 9 C 18.865419 9 19 8.8654187 19 8.6992188 L 19 5.3007812 C 19 5.1345813 18.865419 5 18.699219 5 L 15.300781 5 z M 16.134766 6 C 16.13982 5.9994897 16.145197 6 16.150391 6 L 17.849609 6 C 17.932709 6 18 6.0672906 18 6.1503906 L 18 7.8496094 C 18 7.9327094 17.932709 8 17.849609 8 L 16.150391 8 C 16.067291 8 16 7.9327094 16 7.8496094 L 16 6.1503906 C 16 6.0724844 16.058943 6.0076542 16.134766 6 z " /><path id="f21" class="elf-logo-letter-f" d="M 20.300781 0 C 20.134581 0 20 0.13458125 20 0.30078125 L 20 13.699219 C 20 13.865419 20.134581 14 20.300781 14 L 23.699219 14 C 23.865419 14 24 13.865419 24 13.699219 L 24 0.30078125 C 24 0.13458125 23.865419 0 23.699219 0 L 20.300781 0 z M 21.150391 1 L 22.849609 1 C 22.932709 1 23 1.0672906 23 1.1503906 L 23 12.849609 C 23 12.932709 22.932709 13 22.849609 13 L 21.150391 13 C 21.067291 13 21 12.932709 21 12.849609 L 21 1.1503906 C 21 1.0672906 21.067291 1 21.150391 1 z " /></svg>
