<svg width="24" height="24" viewBox="0 0 24 24" version="1.1" xmlns="http://www.w3.org/2000/svg"><path d="M 6 2 C 4.9000011 2 4.0097656 2.9000011 4.0097656 4 L 4 20 C 4 21.099999 4.8902355 22 5.9902344 22 L 18 22 C 19.099999 22 20 21.099999 20 20 L 20 8 L 14 2 L 6 2 z M 6 4 L 13 4 L 13 9 L 18 9 L 18 20 L 6 20 L 6 4 z M 8 11.550781 A 0.44976401 0.44976401 0 0 0 7.5507812 12 A 0.44976401 0.44976401 0 0 0 8 12.449219 L 16 12.449219 A 0.44976401 0.44976401 0 0 0 16.449219 12 A 0.44976401 0.44976401 0 0 0 16 11.550781 L 8 11.550781 z M 8 13.550781 A 0.44976401 0.44976401 0 0 0 7.5507812 14 A 0.44976401 0.44976401 0 0 0 8 14.449219 L 16 14.449219 A 0.44976401 0.44976401 0 0 0 16.449219 14 A 0.44976401 0.44976401 0 0 0 16 13.550781 L 8 13.550781 z M 8 15.550781 A 0.44976401 0.44976401 0 0 0 7.5507812 16 A 0.44976401 0.44976401 0 0 0 8 16.449219 L 16 16.449219 A 0.44976401 0.44976401 0 0 0 16.449219 16 A 0.44976401 0.44976401 0 0 0 16 15.550781 L 8 15.550781 z M 8 17.550781 A 0.44976401 0.44976401 0 0 0 7.5507812 18 A 0.44976401 0.44976401 0 0 0 8 18.449219 L 13 18.449219 A 0.44976401 0.44976401 0 0 0 13.449219 18 A 0.44976401 0.44976401 0 0 0 13 17.550781 L 8 17.550781 z " /></svg>
