<svg width="120" height="120" viewBox="0 0 24 24" version="1.1" xmlns="http://www.w3.org/2000/svg"><path style="fill:#888" d="M 6 2 C 5.6912574 2 5.4008349 2.0727217 5.140625 2.1992188 L 6.9414062 4 L 13 4 L 13 9 L 18 9 L 18 15.058594 L 20 17.058594 L 20 8 L 14 2 L 6 2 z M 3 2.25 A 0.75 0.75 0 0 0 2.46875 2.46875 A 0.75 0.75 0 0 0 2.46875 3.53125 L 4.0097656 5.0722656 L 4 20 C 4 21.099998 4.8902366 22 5.9902344 22 L 18 22 C 18.791088 22 19.47695 21.533883 19.800781 20.863281 L 20.46875 21.53125 A 0.75 0.75 0 0 0 21.53125 21.53125 A 0.75 0.75 0 0 0 21.537109 20.474609 A 0.66500002 0.66500002 0 0 1 21.529297 20.470703 L 3.5292969 2.4707031 A 0.66500002 0.66500002 0 0 1 3.5253906 2.4648438 A 0.75 0.75 0 0 0 3 2.25 z M 6 7.0625 L 18 19.0625 L 18 20 L 6 20 L 6 7.0625 z " />
</svg>
