<svg width="120" height="120" viewBox="0 0 24 24" version="1.1" xmlns="http://www.w3.org/2000/svg"><path style="fill:#df2a59" d="M 6 2 C 4.9000022 2 4.0097656 2.9000022 4.0097656 4 L 4 20 C 4 21.099998 4.8902366 22 5.9902344 22 L 18 22 C 19.099998 22 20 21.099998 20 20 L 20 8 L 14 2 L 6 2 z M 6 4 L 13 4 L 13 9 L 18 9 L 18 20 L 6 20 L 6 4 z M 13.425781 10 L 11.425781 13.011719 L 10 10.996094 L 8 14 L 16 14 L 13.425781 10 z M 8 15.550781 C 7.752028 15.551081 7.5510815 15.752028 7.5507812 16 C 7.5510815 16.247972 7.752028 16.448919 8 16.449219 L 16 16.449219 C 16.247972 16.448919 16.448919 16.247972 16.449219 16 C 16.448919 15.752028 16.247972 15.551081 16 15.550781 L 8 15.550781 z M 8 17.550781 C 7.752028 17.551081 7.5510815 17.752028 7.5507812 18 C 7.5510815 18.247972 7.752028 18.448919 8 18.449219 L 13 18.449219 C 13.247972 18.448919 13.448919 18.247972 13.449219 18 C 13.448919 17.752028 13.247972 17.551081 13 17.550781 L 8 17.550781 z " /></svg>
