<svg width="120" height="120" viewBox="0 0 24 24" version="1.1" xmlns="http://www.w3.org/2000/svg"><path style="fill:#df2a59" d="M 5 3 C 3.9000011 3 3 3.9000011 3 5 L 3 19 C 3 20.099999 3.9000011 21 5 21 L 19 21 C 20.099999 21 21 20.099999 21 19 L 21 5 C 21 3.9000011 20.099999 3 19 3 L 5 3 z M 5 5 L 19 5 L 19 19 L 5 19 L 5 5 z M 15.332031 8.2980469 C 15.094752 8.2980469 14.85741 8.3882931 14.677344 8.5683594 C 14.384433 8.8612721 14.329716 9.3056505 14.513281 9.6550781 L 12.558984 11.609375 L 10.164062 11.609375 L 10.165625 11.88125 L 10.165625 14.002734 L 8.2109375 15.957031 C 7.8614908 15.773467 7.4175217 15.828182 7.1246094 16.121094 C 6.7644761 16.481227 6.764476 17.070335 7.1246094 17.430469 C 7.4847426 17.790601 8.0734611 17.790601 8.4335938 17.430469 C 8.7265065 17.137556 8.7812211 16.693179 8.5976562 16.34375 L 10.551953 14.389453 L 10.857422 14.389453 C 9.9666496 15.478748 9.2215452 16.69212 8.6523438 18 L 10.010156 18 C 10.651732 16.668151 11.495333 15.451632 12.501172 14.390234 L 12.945703 14.390625 L 12.945703 13.941797 C 14.374981 12.561172 16.093065 11.477535 18 10.791406 L 18 9.4863281 C 17.94265 9.5051071 17.885174 9.5235368 17.828125 9.5429688 C 16.027533 10.156282 14.37704 11.092703 12.945703 12.283203 L 12.945703 11.996094 L 14.9 10.041797 C 15.249428 10.225362 15.693415 10.170647 15.986328 9.8777344 C 16.346461 9.5176017 16.346461 8.9284928 15.986328 8.5683594 C 15.806261 8.3882928 15.569311 8.2980469 15.332031 8.2980469 z M 15.332031 8.6476563 C 15.478702 8.6476561 15.625198 8.7041044 15.737891 8.8167969 C 15.963275 9.0421826 15.961732 9.4023496 15.736328 9.6277344 C 15.510944 9.8531201 15.151167 9.854273 14.925781 9.6289062 C 14.703917 9.4070435 14.670458 9.0205889 14.915234 8.8273438 C 14.918634 8.8237438 14.922281 8.8202969 14.925781 8.8167969 C 15.038473 8.7041041 15.185361 8.6476564 15.332031 8.6476563 z M 10.709766 12.154688 L 12.4 12.154688 L 12.4 13.845313 L 10.710938 13.84375 L 10.709766 12.154688 z M 7.7785156 16.201172 C 7.9248406 16.201519 8.0709009 16.258392 8.1835938 16.371094 C 8.4089785 16.59648 8.4089785 16.955084 8.1835938 17.180469 C 7.958209 17.405855 7.5984316 17.407007 7.3730469 17.181641 C 7.1511828 16.959742 7.1475732 16.606057 7.3625 16.380078 C 7.3659 16.376478 7.3695469 16.373031 7.3730469 16.369531 C 7.4857393 16.256839 7.6321906 16.200824 7.7785156 16.201172 z " /></svg>
