<svg width="24" height="24" viewBox="0 0 24 24" version="1.1" xmlns="http://www.w3.org/2000/svg"><path d="M 7 3.7539062 C 6.7896749 3.7541921 6.5891323 3.8427711 6.4472656 3.9980469 L 3.8242188 6.8242188 L 3.7734375 6.8769531 L 3.7753906 6.8789062 C 3.4513188 7.227721 3.25 7.691567 3.25 8.1992188 L 3.25 18.800781 C 3.25 19.868106 4.1318938 20.75 5.1992188 20.75 L 18.800781 20.75 C 19.868106 20.75 20.75 19.868106 20.75 18.800781 L 20.75 8.1992188 C 20.75 7.691567 20.548681 7.227721 20.224609 6.8789062 L 20.226562 6.8769531 L 20.175781 6.8242188 L 17.552734 3.9980469 C 17.410868 3.8427712 17.210325 3.7541922 17 3.7539062 L 7 3.7539062 z M 7.3300781 5.2539062 L 16.669922 5.2539062 L 17.585938 6.25 L 6.4140625 6.25 L 7.3300781 5.2539062 z M 5.1992188 7.75 L 18.800781 7.75 C 19.063054 7.75 19.25 7.9369463 19.25 8.1992188 L 19.25 18.800781 C 19.25 19.063054 19.063054 19.25 18.800781 19.25 L 5.1992188 19.25 C 4.9369464 19.25 4.75 19.063054 4.75 18.800781 L 4.75 8.1992188 C 4.75 7.9369463 4.9369464 7.75 5.1992188 7.75 z " /></svg>
