<svg width="24" height="24" viewBox="0 0 24 24" version="1.1" xmlns="http://www.w3.org/2000/svg"><path d="m 10.550781,2.1461018 v 3 H 8 l 4,4 4,-4 h -2.550781 v -3 z M 6.0390625,6.8707112 C 5.7522483,6.857915 5.476536,6.9827111 5.296875,7.2066487 l -4,5.0000003 c -0.2867946,0.358224 -0.2581866,0.87485 0.066406,1.199219 l 2.7363282,2.736328 v 4.626953 C 4.099443,21.26649 4.502659,21.669706 5,21.66954 h 14 c 0.497341,1.66e-4 0.900557,-0.40305 0.900391,-0.900391 v -4.626953 l 2.736328,-2.736328 c 0.324593,-0.324369 0.353201,-0.840996 0.06641,-1.199219 l -4,-5.0000003 C 18.523464,6.9827112 18.247752,6.8579152 17.960938,6.8707112 17.674661,6.883099 17.411387,7.0310542 17.251953,7.2691487 L 15.519531,9.8687581 H 8.4804688 L 6.7480469,7.2691487 C 6.588613,7.0310544 6.3253396,6.8830991 6.0390625,6.8707112 Z M 5.9335938,9.2925862 6.9355469,10.79454 4.8222656,14.317977 3.2050781,12.702743 Z m 12.1328122,0 2.728516,3.4101568 -1.617188,1.615234 -2.113281,-3.523437 z M 8.5097656,11.66954 h 6.9804684 l 1.919922,3.199218 H 6.5898438 Z m -2.609375,5 H 18.099609 v 3.199218 H 5.9003906 Z" /></svg>
