<svg width="24" height="24" viewBox="0 0 24 24" version="1.1"
     xmlns="http://www.w3.org/2000/svg">
    <path d="M 2 3.25 L 2 11.75 L 13.5 11.75 L 13.5 3.25 L 2 3.25 z M 15 3.25 L 15 5.75 L 22 5.75 L 22 3.25 L 15 3.25 z M 3.5 4.75 L 12 4.75 L 12 10.25 L 3.5 10.25 L 3.5 4.75 z M 15 7.25 L 15 8.75 L 22 8.75 L 22 7.25 L 15 7.25 z M 15 10.25 L 15 11.75 L 22 11.75 L 22 10.25 L 15 10.25 z M 2 13.25 L 2 14.75 L 22 14.75 L 22 13.25 L 2 13.25 z M 2 16.25 L 2 17.75 L 22 17.75 L 22 16.25 L 2 16.25 z M 2 19.25 L 2 20.75 L 22 20.75 L 22 19.25 L 2 19.25 z" />
</svg>
