<svg width="24" height="24" viewBox="0 0 24 24" version="1.1"
     xmlns="http://www.w3.org/2000/svg">
    <path d="M 12 0.95117188 C 5.9073248 0.95117219 0.95117219 5.9073248 0.95117188 12 C 0.95117188 18.092675 5.9073245 23.048828 12 23.048828 C 18.092676 23.048828 23.048828 18.092676 23.048828 12 L 23.048828 11.25 C 21.207846 11.5 19.865637 10.499999 19.380859 9.0820312 C 16.000004 9.999999 14.000001 7.9999966 14.917969 4.6191406 C 13.325471 4.1780709 12.553357 2.6799183 12.75 0.95117188 L 12 0.95117188 z M 11.384766 2.5761719 C 11.593749 3.9062486 12.000001 4.6609868 13.273438 5.3164062 C 12.649929 8.4944514 15.505549 11.35007 18.683594 10.726562 C 19.150113 11.999998 20.483778 12.483726 21.423828 12.615234 C 21.090947 17.59294 17.063599 21.548828 12 21.548828 C 6.7179832 21.548828 2.4511719 17.282017 2.4511719 12 C 2.4511721 6.9364021 6.40706 2.909053 11.384766 2.5761719 z M 9 5.5 C 7.6252132 5.5 6.5 6.6252132 6.5 8 C 6.5 9.3747868 7.6252132 10.5 9 10.5 C 10.374787 10.5 11.5 9.3747868 11.5 8 C 11.5 6.6252132 10.374787 5.5 9 5.5 z M 9 6.5 C 9.8343478 6.5 10.5 7.1656522 10.5 8 C 10.5 8.8343478 9.8343478 9.5 9 9.5 C 8.1656522 9.5 7.5 8.8343478 7.5 8 C 7.5 7.1656522 8.1656522 6.5 9 6.5 z M 7 11.5 C 5.6252132 11.5 4.5 12.625213 4.5 14 C 4.5 15.374787 5.6252132 16.5 7 16.5 C 8.3747868 16.5 9.5 15.374787 9.5 14 C 9.5 12.625213 8.3747868 11.5 7 11.5 z M 7 12.5 C 7.8343478 12.5 8.5 13.165652 8.5 14 C 8.5 14.834348 7.8343478 15.5 7 15.5 C 6.1656522 15.5 5.5 14.834348 5.5 14 C 5.5 13.165652 6.1656522 12.5 7 12.5 z M 14 13.5 C 12.625213 13.5 11.5 14.625213 11.5 16 C 11.5 17.374787 12.625213 18.5 14 18.5 C 15.374787 18.5 16.5 17.374787 16.5 16 C 16.5 14.625213 15.374787 13.5 14 13.5 z M 14 14.5 C 14.834348 14.5 15.5 15.165652 15.5 16 C 15.5 16.834348 14.834348 17.5 14 17.5 C 13.165652 17.5 12.5 16.834348 12.5 16 C 12.5 15.165652 13.165652 14.5 14 14.5 z" />
</svg>
