<svg width="24" height="24" viewBox="0 0 24 24" version="1.1" xmlns="http://www.w3.org/2000/svg"><path d="M 12 2 C 11.585786 2 11.25 2.3327332 11.25 2.7441406 L 11.25 15.916016 L 7.53125 12.222656 C 7.2381476 11.930987 6.7618524 11.930987 6.46875 12.222656 C 6.1746281 12.513559 6.1746281 12.985674 6.46875 13.277344 L 11.46875 18.242188 C 11.636541 18.403369 11.859873 18.449578 12 18.460938 C 12.148817 18.460937 12.363075 18.407211 12.53125 18.242188 L 17.53125 13.277344 C 17.825372 12.986442 17.825372 12.514326 17.53125 12.222656 C 17.238148 11.930987 16.761852 11.930987 16.46875 12.222656 L 12.75 15.916016 L 12.75 2.7441406 C 12.75 2.333117 12.414214 2 12 2 z M 2.7695312 18.460938 C 2.3444621 18.460771 1.9998336 18.8054 2 19.230469 C 2 20.751317 3.2486834 22 4.7695312 22 L 19.230469 22 C 20.751317 22 22 20.751317 22 19.230469 C 22.000166 18.8054 21.655538 18.460771 21.230469 18.460938 C 20.8054 18.460771 20.460771 18.8054 20.460938 19.230469 C 20.460938 19.925621 19.925621 20.460938 19.230469 20.460938 L 4.7695312 20.460938 C 4.0743791 20.460938 3.5390625 19.925621 3.5390625 19.230469 C 3.5392289 18.8054 3.1946005 18.460771 2.7695312 18.460938 z " /></svg>
