<svg width="24" height="24" viewBox="0 0 24 24" version="1.1"
     xmlns="http://www.w3.org/2000/svg">
    <path d="M 12 2 A 0.76982697 0.76982697 0 0 0 11.572266 2.1289062 L 7.296875 4.984375 L 4.984375 4.984375 L 4.984375 6.5273438 L 2.3417969 8.2929688 A 0.76982697 0.76982697 0 0 0 2 8.9316406 L 2 20.230469 A 0.76982697 0.76982697 0 0 0 2.7695312 21 L 21.230469 21 A 0.76982697 0.76982697 0 0 0 22 20.230469 L 22 8.9316406 A 0.76982697 0.76982697 0 0 0 21.658203 8.2929688 L 19.015625 6.5273438 L 19.015625 4.984375 L 16.703125 4.984375 L 12.427734 2.1289062 A 0.76982697 0.76982697 0 0 0 12 2 z M 12 3.6953125 L 13.931641 4.984375 L 10.068359 4.984375 L 12 3.6953125 z M 6 6 L 8.546875 6 L 15.453125 6 L 18 6 L 18 7.7011719 L 18 10.736328 L 12 14.429688 L 6 10.736328 L 6 7.7011719 L 6 6 z M 8.9628906 7 C 8.4790953 7 8.0839844 7.3997841 8.0839844 7.8886719 L 8.0839844 11.589844 L 8.9628906 12.130859 L 8.9628906 7.8886719 L 15.121094 7.8886719 L 15.121094 12.080078 L 16 11.539062 L 16 7.8886719 C 16 7.3997841 15.604889 7 15.121094 7 L 8.9628906 7 z M 12.041016 8.3339844 C 11.192173 8.3339844 10.501953 9.0308958 10.501953 9.8886719 C 10.501953 10.746447 11.192173 11.445313 12.041016 11.445312 C 12.889857 11.445312 13.580078 10.746447 13.580078 9.8886719 C 13.580078 9.0308958 12.889857 8.3339844 12.041016 8.3339844 z M 4.984375 8.3789062 L 4.984375 10.111328 L 3.6328125 9.28125 L 4.984375 8.3789062 z M 19.015625 8.3789062 L 20.367188 9.28125 L 19.015625 10.111328 L 19.015625 8.3789062 z M 12.041016 9.2226562 C 12.40606 9.2226562 12.701172 9.5197836 12.701172 9.8886719 C 12.701172 10.257561 12.40606 10.554688 12.041016 10.554688 C 11.675969 10.554688 11.382813 10.257561 11.382812 9.8886719 C 11.382812 9.5197836 11.675969 9.2226562 12.041016 9.2226562 z M 3.5390625 10.919922 L 11.621094 15.892578 A 0.72278729 0.72278729 0 0 0 12.378906 15.892578 L 20.460938 10.919922 L 20.460938 19.460938 L 3.5390625 19.460938 L 3.5390625 10.919922 z M 12.041016 12.333984 C 11.329035 12.333984 10.660373 12.507861 10.066406 12.810547 L 11 13.384766 C 11.333267 13.280172 11.681985 13.222656 12.041016 13.222656 C 12.380736 13.222656 12.712235 13.273356 13.029297 13.367188 L 13.970703 12.787109 C 13.388322 12.499093 12.734393 12.333984 12.041016 12.333984 z" />
</svg>
