<svg width="24" height="24" viewBox="0 0 24 24" version="1.1"
     xmlns="http://www.w3.org/2000/svg">
    <path d="M 12 2 A 0.76982697 0.76982697 0 0 0 11.572266 2.1289062 L 7.296875 4.984375 L 4.984375 4.984375 L 4.984375 6.5273438 L 2.3417969 8.2929688 A 0.76982697 0.76982697 0 0 0 2 8.9316406 L 2 20.230469 A 0.76982697 0.76982697 0 0 0 2.7695312 21 L 21.230469 21 A 0.76982697 0.76982697 0 0 0 22 20.230469 L 22 8.9316406 A 0.76982697 0.76982697 0 0 0 21.658203 8.2929688 L 19.015625 6.5273438 L 19.015625 4.984375 L 16.703125 4.984375 L 12.427734 2.1289062 A 0.76982697 0.76982697 0 0 0 12 2 z M 12 3.6953125 L 13.931641 4.984375 L 10.068359 4.984375 L 12 3.6953125 z M 6 6 L 8.546875 6 L 15.453125 6 L 18 6 L 18 7.7011719 L 18 10.736328 L 12 14.429688 L 6 10.736328 L 6 7.7011719 L 6 6 z M 9.3339844 6.4003906 L 9.3339844 7.2441406 L 8.8886719 7.2441406 C 8.3997835 7.2441406 8 7.6254001 8 8.0898438 L 8 11.539062 L 8.8886719 12.085938 L 8.8886719 9.7773438 L 15.111328 9.7773438 L 15.111328 12.085938 L 16 11.539062 L 16 8.0898438 C 16 7.6254001 15.600217 7.2441406 15.111328 7.2441406 L 14.666016 7.2441406 L 14.666016 6.4003906 L 13.777344 6.4003906 L 13.777344 7.2441406 L 10.222656 7.2441406 L 10.222656 6.4003906 L 9.3339844 6.4003906 z M 8.8886719 8.0898438 L 15.111328 8.0898438 L 15.111328 8.9335938 L 8.8886719 8.9335938 L 8.8886719 8.0898438 z M 4.984375 8.3789062 L 4.984375 10.111328 L 3.6328125 9.28125 L 4.984375 8.3789062 z M 19.015625 8.3789062 L 20.367188 9.28125 L 19.015625 10.111328 L 19.015625 8.3789062 z M 9.7773438 10.623047 L 9.7773438 11.466797 L 14.222656 11.466797 L 14.222656 10.623047 L 9.7773438 10.623047 z M 3.5390625 10.919922 L 11.621094 15.892578 A 0.72278729 0.72278729 0 0 0 12.378906 15.892578 L 20.460938 10.919922 L 20.460938 19.460938 L 3.5390625 19.460938 L 3.5390625 10.919922 z M 9.7773438 12.310547 L 9.7773438 12.632812 L 10.628906 13.15625 L 12.888672 13.15625 L 12.888672 12.310547 L 9.7773438 12.310547 z" />
</svg>
