<svg width="24" height="24" viewBox="0 0 24 24" version="1.1"
     xmlns="http://www.w3.org/2000/svg">
    <path d="m 7.9609375,2 -4,4 0.042969,11.248047 C 4.0075654,18.205832 4.8000208,19 5.7578125,19 h 9.4707035 c 0.957792,0 1.751953,-0.794161 1.751953,-1.751953 V 3.796875 c 0,-0.9577917 -0.794161,-1.7539063 -1.751953,-1.7539062 z m 1,1.5488281 h 6.2675785 c 0.150206,0 0.248047,0.097841 0.248047,0.2480469 v 13.451172 c 0,0.150206 -0.09784,0.248047 -0.248047,0.248047 H 5.7578125 c -0.150206,0 -0.2480469,-0.09784 -0.2480469,-0.248047 V 7 h 3.4511719 z m 8.5195315,0.15625 V 17.644531 c 0,1.014132 -0.860831,1.855469 -1.898438,1.855469 H 5.7089844 c 0.2857767,0.587253 0.8871393,1 1.5761719,1 H 16.75586 c 0.957791,0 1.751953,-0.794162 1.751953,-1.751953 V 5.296875 c 0,-0.6999243 -0.425207,-1.3121398 -1.027344,-1.5917969 z m 1.53125,1.5 V 19.144531 C 19.011719,20.158663 18.150888,21 17.113281,21 H 7.2402344 c 0.2857767,0.587253 0.8871394,1 1.5761719,1 H 18.28711 c 0.957791,0 1.751953,-0.794162 1.751953,-1.751953 V 6.796875 c 0,-0.6999243 -0.425207,-1.3121398 -1.027344,-1.5917969 z" />
</svg>
