<svg width="24" height="24" viewBox="0 0 24 24" version="1.1"
     xmlns="http://www.w3.org/2000/svg">
    <path d="M 4.75 2 C 3.2399793 2 2 3.2399793 2 4.75 L 2 19.25 C 2 20.76002 3.2399793 22 4.75 22 L 19.25 22 C 20.76002 22 22 20.76002 22 19.25 L 22 4.75 C 22 3.2399793 20.76002 2 19.25 2 L 4.75 2 z M 4.75 3.4980469 L 19.25 3.4980469 C 19.955972 3.4980469 20.501953 4.0440274 20.501953 4.75 L 20.501953 19.25 C 20.501953 19.955972 19.955972 20.501953 19.25 20.501953 L 4.75 20.501953 C 4.0440274 20.501953 3.4980469 19.955972 3.4980469 19.25 L 3.4980469 4.75 C 3.4980469 4.0440273 4.0440273 3.4980469 4.75 3.4980469 z M 17.5 6.75 A 0.75 0.75 0 0 0 16.96875 6.96875 L 14.5 9.4375 L 13.03125 7.96875 A 0.75 0.75 0 0 0 11.96875 7.96875 A 0.75 0.75 0 0 0 11.96875 9.03125 L 13.96875 11.03125 A 0.750075 0.750075 0 0 0 15.03125 11.03125 L 18.03125 8.03125 A 0.75 0.75 0 0 0 18.03125 6.96875 A 0.75 0.75 0 0 0 17.5 6.75 z M 6 8.25 L 6 9.75 L 9 9.75 L 9 8.25 L 6 8.25 z M 13 12.25 A 0.75 0.75 0 0 0 12.46875 12.46875 A 0.75 0.75 0 0 0 12.46875 13.53125 L 13.9375 15 L 12.46875 16.46875 A 0.75 0.75 0 0 0 12.46875 17.53125 A 0.75 0.75 0 0 0 13.53125 17.53125 L 15 16.0625 L 16.46875 17.53125 A 0.75 0.75 0 0 0 17.53125 17.53125 A 0.75 0.75 0 0 0 17.53125 16.46875 L 16.0625 15 L 17.53125 13.53125 A 0.75 0.75 0 0 0 17.53125 12.46875 A 0.75 0.75 0 0 0 17 12.25 A 0.75 0.75 0 0 0 16.46875 12.46875 L 15 13.9375 L 13.53125 12.46875 A 0.75 0.75 0 0 0 13 12.25 z M 6 14.25 L 6 15.75 L 9 15.75 L 9 14.25 L 6 14.25 z" />
</svg>
