<svg width="24" height="24" viewBox="0 0 24 24" version="1.1"
     xmlns="http://www.w3.org/2000/svg">
    <path d="M 4.75,2 C 3.2399778,2 2,3.2399778 2,4.75 v 14.5 C 2,20.760022 3.2399778,22 4.75,22 h 14.5 C 20.760022,22 22,20.760022 22,19.25 V 4.75 C 22,3.2399778 20.760022,2 19.25,2 Z m 0,1.4980469 h 14.5 c 0.705973,0 1.251953,0.5459798 1.251953,1.2519531 v 14.5 c 0,0.705973 -0.54598,1.251953 -1.251953,1.251953 H 4.75 c -0.7059733,0 -1.2519531,-0.54598 -1.2519531,-1.251953 V 4.75 C 3.4980469,4.0440266 4.0440266,3.4980469 4.75,3.4980469 Z M 11,7 v 4 h 7 V 7 Z M 6,8.25 v 1.5 h 3 v -1.5 z m 6.289062,0.039063 h 4.421876 v 1.421875 H 12.289062 Z M 11,13 v 4 h 7 v -4 z m -5,1.25 v 1.5 h 3 v -1.5 z m 6.289062,0.03906 h 4.421876 v 1.421876 h -4.421876 z" />
</svg>
