<svg width="24" height="24" viewBox="0 0 24 24" version="1.1"
     xmlns="http://www.w3.org/2000/svg">
    <path d="M 4.8417969,4.0078125 C 4.3118889,3.9348101 3.8162931,4.1624983 3.5,4.4941406 3.1837069,4.825783 3,5.2639675 3,5.7421875 V 18.257812 c 0,0.484785 0.1787395,0.920721 0.4960938,1.265625 0.3173542,0.344905 0.8752733,0.605205 1.4414062,0.449219 l 14.517578,-4 c 0.337712,-0.09305 0.688464,-0.233288 0.996094,-0.505859 C 20.758801,15.194226 21,14.742597 21,14.257813 V 7.7421875 C 21,7.2639673 20.784486,6.8179068 20.472656,6.5234375 20.160827,6.2289682 19.768691,6.0642014 19.359375,6.0078125 Z M 19.484375,6.96875 c 0.463971,0.035748 0.63781,0.1725129 0.65625,0.5566406 l -0.02148,6.8691414 c 0,0.339558 -0.311904,0.45613 -0.595702,0.509766 L 5.4999996,17.966796 C 5.1837895,18.057604 5.1273578,17.831736 5.125,17.6875 l 0,-11.1613735 C 5.1460341,6.1624617 5.3866911,6.1269188 5.6705224,6.1022962 Z" />
</svg>
