<svg width="24" height="24" viewBox="0 0 24 24" version="1.1" xmlns="http://www.w3.org/2000/svg">
  <path d="M 12.001953,2.3222656 A 0.75028501,0.75028501 0 0 0 11.464844,2.5488281 L 1.6269531,12.646484 a 0.75028501,0.75028501 0 0 0 0.3300781,1.246094 c 1.4583831,0.418333 1.9877143,0.942616 2.4082032,1.56836 V 21.25 a 0.75028501,0.75028501 0 0 0 0.75,0.75 H 10 a 0.75028501,0.75028501 0 0 0 0.75,-0.75 v -5.5 h 2.5 v 5.5 A 0.75028501,0.75028501 0 0 0 14,22 h 4.888672 a 0.75028501,0.75028501 0 0 0 0.75,-0.75 v -5.791016 c 0.409401,-0.62491 0.982611,-1.159514 2.408203,-1.566406 a 0.75028501,0.75028501 0 0 0 0.330078,-1.246094 L 12.539063,2.5488281 a 0.75028501,0.75028501 0 0 0 -0.53711,-0.2265625 z m 0,1.8242188 8.574219,8.8007816 c -1.077825,0.510457 -1.8941,1.135453 -2.330078,1.855468 a 0.75028501,0.75028501 0 0 0 -0.107422,0.386719 V 20.5 H 14.75 V 15 A 0.75028501,0.75028501 0 0 0 14,14.25 H 10 A 0.75028501,0.75028501 0 0 0 9.25,15 v 5.5 H 5.8652344 V 15.189453 A 0.75028501,0.75028501 0 0 0 5.75,14.791016 C 5.3183235,14.106541 4.5169524,13.473141 3.4257813,12.951172 Z" />
</svg>
