<svg width="120" height="120" viewBox="0 0 24 24" version="1.1" xmlns="http://www.w3.org/2000/svg"><path d="M 3.6930804,2 C 2.7618644,2 2,2.7618644 2,3.6930804 V 15.545015 c 0,0.931217 0.7618644,1.69308 1.6930804,1.69308 H 15.545015 c 0.931216,0 1.69308,-0.761863 1.69308,-1.69308 V 3.6930804 C 17.238095,2.7618644 16.476231,2 15.545015,2 Z M 3.9047619,3.9047619 H 15.333333 V 15.333333 H 3.9047619 Z M 18.190476,5.8095238 v 1.7142857 10.6666665 0.09524 H 5.8095238 v 0.01042 c 0,0.858465 0.702548,1.561012 1.5610119,1.561012 H 18.296131 c 0.858464,0 1.561012,-0.702547 1.561012,-1.561012 V 7.3705357 c 0,-0.8584639 -0.702548,-1.5610119 -1.561012,-1.5610119 z M 11.430804,9.500372 8.890997,12.776786 7.079241,10.584077 4.8571429,13.428571 h 9.5238091 z m 9.045386,0.610863 v 1.412575 8.95238 H 11.142857 9.6190476 v 0.202754 C 9.6190476,21.405473 10.238179,22 10.994791,22 h 9.629465 C 21.380869,22 22,21.405473 22,20.678944 v -9.246653 c 0,-0.726529 -0.619131,-1.321056 -1.375744,-1.321056 z" /></svg>
