<svg width="24" height="24" viewBox="0 0 24 24" version="1.1"
     xmlns="http://www.w3.org/2000/svg">
    <path d="M 5.5 6.5 C 4.5434779 6.5 3.75 7.293478 3.75 8.25 L 3.75 17.25 C 3.75 18.206522 4.5434779 19 5.5 19 L 18.5 19 C 19.456522 19 20.25 18.206522 20.25 17.25 L 20.25 8.25 C 20.25 7.293478 19.456522 6.5 18.5 6.5 L 5.5 6.5 z M 5.5 8 L 18.5 8 C 18.651473 8 18.75 8.0985306 18.75 8.25 L 18.75 17.25 C 18.75 17.401473 18.65147 17.5 18.5 17.5 L 5.5 17.5 C 5.348528 17.5 5.25 17.40147 5.25 17.25 L 5.25 8.25 C 5.25 8.0985276 5.3485276 8 5.5 8 z M 17 8.75 A 0.25 0.25 0 0 0 16.822266 8.8222656 A 0.25 0.25 0 0 0 16.822266 9.1777344 L 17.144531 9.5 L 16.822266 9.8222656 A 0.25 0.25 0 0 0 16.822266 10.177734 A 0.25 0.25 0 0 0 17.177734 10.177734 L 17.5 9.8554688 L 17.822266 10.177734 A 0.25 0.25 0 0 0 18.177734 10.177734 A 0.25 0.25 0 0 0 18.177734 9.8222656 L 17.855469 9.5 L 18.177734 9.1777344 A 0.25 0.25 0 0 0 18.177734 8.8222656 A 0.25 0.25 0 0 0 18 8.75 A 0.25 0.25 0 0 0 17.822266 8.8222656 L 17.5 9.1445312 L 17.177734 8.8222656 A 0.25 0.25 0 0 0 17 8.75 z M 12 8.9277344 A 1 1 0 0 0 11 9.9277344 A 1 1 0 0 0 12 10.927734 A 1 1 0 0 0 13 9.9277344 A 1 1 0 0 0 12 8.9277344 z M 11 11.419922 L 11 16.419922 L 13 16.419922 L 13 11.419922 L 11 11.419922 z" />
    <g transform="translate(0,0.41984465)">
        <path style="fill:#9e2148;stroke-width:1.5;paint-order:fill markers stroke" d="m 12,11 v 5" />
    </g>
</svg>
