<svg width="24" height="24" viewBox="0 0 24 24" version="1.1"
     xmlns="http://www.w3.org/2000/svg">
    <path d="M 5.5 4.5 C 4.9546497 4.5 4.5 4.9546497 4.5 5.5 L 4.5 7.5 C 4.5 8.0453503 4.9546497 8.5 5.5 8.5 L 7.5 8.5 C 8.0453503 8.5 8.5 8.0453503 8.5 7.5 L 8.5 5.5 C 8.5 4.9546497 8.0453503 4.5 7.5 4.5 L 5.5 4.5 z M 5.5 5.5 L 7.5 5.5 L 7.5 7.5 L 5.5 7.5 L 5.5 5.5 z M 11 5.7753906 L 11 7.2753906 L 20 7.2753906 L 20 5.7753906 L 11 5.7753906 z M 5.5 10.5 C 4.9546497 10.5 4.5 10.95465 4.5 11.5 L 4.5 13.5 C 4.5 14.04535 4.9546497 14.5 5.5 14.5 L 7.5 14.5 C 8.0453503 14.5 8.5 14.04535 8.5 13.5 L 8.5 11.5 C 8.5 10.95465 8.0453503 10.5 7.5 10.5 L 5.5 10.5 z M 5.5 11.5 L 7.5 11.5 L 7.5 13.5 L 5.5 13.5 L 5.5 11.5 z M 11 11.75 L 11 13.25 L 20 13.25 L 20 11.75 L 11 11.75 z M 5.5 16.5 C 4.9546497 16.5 4.5 16.95465 4.5 17.5 L 4.5 19.5 C 4.5 20.04535 4.9546497 20.5 5.5 20.5 L 7.5 20.5 C 8.0453503 20.5 8.5 20.04535 8.5 19.5 L 8.5 17.5 C 8.5 16.95465 8.0453503 16.5 7.5 16.5 L 5.5 16.5 z M 5.5 17.5 L 7.5 17.5 L 7.5 19.5 L 5.5 19.5 L 5.5 17.5 z M 11 17.75 L 11 19.25 L 20 19.25 L 20 17.75 L 11 17.75 z" />
</svg>
