<svg width="24" height="24" viewBox="0 0 24 24" version="1.1"
     xmlns="http://www.w3.org/2000/svg">
    <path d="M 4 3.25 C 3.0434769 3.25 2.25 4.0434769 2.25 5 L 2.25 14 C 2.25 14.956523 3.0434769 15.75 4 15.75 L 4.5 15.75 L 4.5 14.25 L 4 14.25 C 3.8485278 14.25 3.75 14.151473 3.75 14 L 3.75 5 C 3.75 4.8485278 3.8485278 4.75 4 4.75 L 17 4.75 C 17.151473 4.75 17.25 4.8485276 17.25 5 L 17.25 7.34375 L 18.75 7.34375 L 18.75 5 C 18.75 4.0434769 17.956523 3.25 17 3.25 L 4 3.25 z M 5 5.4375 A 0.5625 0.5625 0 0 0 4.4375 6 A 0.5625 0.5625 0 0 0 5 6.5625 A 0.5625 0.5625 0 0 0 5.5625 6 A 0.5625 0.5625 0 0 0 5 5.4375 z M 6.6875 5.4375 A 0.5625 0.5625 0 0 0 6.125 6 A 0.5625 0.5625 0 0 0 6.6875 6.5625 A 0.5625 0.5625 0 0 0 7.25 6 A 0.5625 0.5625 0 0 0 6.6875 5.4375 z M 8.375 5.4375 A 0.5625 0.5625 0 0 0 7.8125 6 A 0.5625 0.5625 0 0 0 8.375 6.5625 A 0.5625 0.5625 0 0 0 8.9375 6 A 0.5625 0.5625 0 0 0 8.375 5.4375 z M 7 8 C 6.0434759 8 5.25 8.793476 5.25 9.75 L 5.25 18.75 C 5.25 19.706524 6.0434759 20.5 7 20.5 L 20 20.5 C 20.956524 20.5 21.75 19.706524 21.75 18.75 L 21.75 9.75 C 21.75 8.793476 20.956524 8 20 8 L 7 8 z M 7 9.5 L 20 9.5 C 20.151473 9.5 20.25 9.5985302 20.25 9.75 L 20.25 18.75 C 20.25 18.901473 20.15147 19 20 19 L 7 19 C 6.8485276 19 6.75 18.90147 6.75 18.75 L 6.75 9.75 C 6.75 9.5985272 6.8485272 9.5 7 9.5 z M 8 10.1875 A 0.5625 0.5625 0 0 0 7.4375 10.75 A 0.5625 0.5625 0 0 0 8 11.3125 A 0.5625 0.5625 0 0 0 8.5625 10.75 A 0.5625 0.5625 0 0 0 8 10.1875 z M 9.6875 10.1875 A 0.5625 0.5625 0 0 0 9.125 10.75 A 0.5625 0.5625 0 0 0 9.6875 11.3125 A 0.5625 0.5625 0 0 0 10.25 10.75 A 0.5625 0.5625 0 0 0 9.6875 10.1875 z M 11.375 10.1875 A 0.5625 0.5625 0 0 0 10.8125 10.75 A 0.5625 0.5625 0 0 0 11.375 11.3125 A 0.5625 0.5625 0 0 0 11.9375 10.75 A 0.5625 0.5625 0 0 0 11.375 10.1875 z" />
</svg>
