<?xml version="1.0" encoding="UTF-8" standalone="no"?>
<svg
   width="48"
   height="48"
   viewBox="0 -960 960 960"
   version="1.1"
   id="svg4"
   sodipodi:docname="save.svg"
   inkscape:version="1.2.2 (b0a8486541, 2022-12-01)"
   xmlns:inkscape="http://www.inkscape.org/namespaces/inkscape"
   xmlns:sodipodi="http://sodipodi.sourceforge.net/DTD/sodipodi-0.dtd"
   xmlns="http://www.w3.org/2000/svg"
   xmlns:svg="http://www.w3.org/2000/svg">
  <defs
     id="defs8" />
  <sodipodi:namedview
     id="namedview6"
     pagecolor="#ffffff"
     bordercolor="#000000"
     borderopacity="0.25"
     inkscape:showpageshadow="2"
     inkscape:pageopacity="0.0"
     inkscape:pagecheckerboard="0"
     inkscape:deskcolor="#d1d1d1"
     showgrid="false"
     inkscape:zoom="18.145833"
     inkscape:cx="23.889782"
     inkscape:cy="24.055109"
     inkscape:window-width="1920"
     inkscape:window-height="1008"
     inkscape:window-x="0"
     inkscape:window-y="0"
     inkscape:window-maximized="1"
     inkscape:current-layer="svg4" />
  <path
     d="M185.09-105.87q-32.51 0-55.87-23.35-23.35-23.36-23.35-55.87v-589.82q0-32.74 23.35-56.26 23.36-23.53 55.87-23.53h470.65q16.46 0 31.38 6.7 14.92 6.7 25.75 17.52l117.61 117.61q10.82 10.83 17.52 25.75 6.7 14.92 6.7 31.38v470.65q0 32.51-23.53 55.87-23.52 23.35-56.26 23.35H185.09Zm589.82-547.87L653.74-774.91H185.09v589.82h589.82v-468.65ZM479.76-250.09q43.24 0 73.74-30.26 30.5-30.27 30.5-73.5 0-43.24-30.26-73.74-30.27-30.5-73.5-30.5-43.24 0-73.74 30.27-30.5 30.26-30.5 73.5 0 43.23 30.26 73.73 30.27 30.5 73.5 30.5ZM277.7-578.91h278.78q16.7 0 28.16-11.45 11.45-11.46 11.45-28.16v-63.78q0-16.71-11.45-28.16-11.46-11.45-28.16-11.45H277.7q-16.71 0-28.16 11.45t-11.45 28.16v63.78q0 16.7 11.45 28.16 11.45 11.45 28.16 11.45Zm-92.61-74.83v468.65-589.82 121.17Z"
     id="path2" />
</svg>
