<svg width="24" height="24" viewBox="0 0 24 24" version="1.1" xmlns="http://www.w3.org/2000/svg">
  <path
     id="path1"
     d="M 16.480469 4 C 16.078147 4 15.734375 4.3437717 15.734375 4.7460938 L 15.734375 16.253906 C 15.734375 16.656228 16.078147 17 16.480469 17 L 20.253906 17 C 20.656228 17 21 16.656228 21 16.253906 L 21 4.7460938 C 21 4.3437717 20.656228 4 20.253906 4 L 16.480469 4 z M 17.027344 5.2929688 L 19.707031 5.2929688 L 19.707031 15.707031 L 17.027344 15.707031 L 17.027344 5.2929688 z M 3.7460938 7.0234375 C 3.3435168 7.0234375 3 7.3689074 3 7.7714844 L 3 16.253906 C 3 16.656483 3.3435168 17 3.7460938 17 L 7.5175781 17 C 7.9201551 17 8.265625 16.656483 8.265625 16.253906 L 8.265625 7.7714844 C 8.265625 7.3689074 7.9201551 7.0234375 7.5175781 7.0234375 L 3.7460938 7.0234375 z M 4.2929688 8.3183594 L 6.9707031 8.3183594 L 6.9707031 15.707031 L 4.2929688 15.707031 L 4.2929688 8.3183594 z M 10.113281 9.9824219 C 9.7114292 9.9824219 9.3671875 10.324709 9.3671875 10.726562 L 9.3671875 16.253906 C 9.3671875 16.655759 9.7114291 17 10.113281 17 L 13.886719 17 C 14.288571 17 14.632812 16.655759 14.632812 16.253906 L 14.632812 10.726562 C 14.632812 10.324709 14.288571 9.9824219 13.886719 9.9824219 L 10.113281 9.9824219 z M 10.658203 11.273438 L 13.341797 11.273438 L 13.341797 15.708984 L 10.658203 15.708984 L 10.658203 11.273438 z M 3 18 L 3 20 L 21 20 L 21 18 L 3 18 z " />
</svg>
