<svg width="24" height="24" viewBox="0 0 24 24" version="1.1" xmlns="http://www.w3.org/2000/svg"><path style="fill:#778498" d="m 12,2.25 c -0.140127,0.011425 -0.363459,0.056604 -0.53125,0.21875 l -5,5 c -0.2941219,0.2931024 -0.2941219,0.7693976 0,1.0625 0.2931024,0.2941219 0.7693976,0.2941219 1.0625,0 L 11.25,4.8125 v 13.263672 c 0,0.414214 0.335786,0.75 0.75,0.75 0.414214,0 0.75,-0.335786 0.75,-0.75 V 4.8125 l 3.71875,3.71875 c 0.293102,0.2941219 0.769398,0.2941219 1.0625,0 0.294122,-0.2931024 0.294122,-0.7693976 0,-1.0625 l -5,-5 C 12.363075,2.3028505 12.148817,2.2501092 12,2.25 Z M 2.7695312,18.460938 C 2.344462,18.460772 1.9998336,18.8054 2,19.230469 2,20.751317 3.2486834,22 4.7695312,22 H 19.230469 C 20.751317,22 22,20.751317 22,19.230469 22.000166,18.8054 21.655538,18.460772 21.230469,18.460938 20.8054,18.460772 20.460772,18.8054 20.460938,19.230469 c 0,0.695152 -0.535317,1.230469 -1.230469,1.230469 H 4.7695312 c -0.6951521,0 -1.2304687,-0.535317 -1.2304687,-1.230469 C 3.5392289,18.8054 3.1946004,18.460771 2.7695312,18.460938 Z" /></svg>
