<svg width="24" height="24" viewBox="0 0 24 24" version="1.1" xmlns="http://www.w3.org/2000/svg">
  <path d="M 3.7890625 2 C 2.811238 2 2 2.8077699 2 3.78125 L 2 18.033203 C 2 19.006684 2.811238 19.814453 3.7890625 19.814453 L 18.105469 19.814453 C 19.083295 19.814453 19.894531 19.006684 19.894531 18.033203 L 19.894531 3.78125 C 19.894531 2.8077699 19.083295 2 18.105469 2 L 3.7890625 2 z M 3.7890625 3.5273438 L 18.105469 3.5273438 C 18.260632 3.5273438 18.361328 3.6267765 18.361328 3.78125 L 18.361328 17.037109 C 16.616008 14.63881 13.781449 13.439453 10.947266 13.439453 C 8.1130836 13.439453 5.2785235 14.63881 3.5332031 17.037109 L 3.5332031 3.78125 C 3.5332031 3.6267762 3.6338995 3.5273437 3.7890625 3.5273438 z M 20.935547 4.0957031 L 20.935547 18.736328 C 20.935547 19.891193 19.961633 20.851563 18.789062 20.851562 L 4.1054688 20.851562 C 4.4236153 21.476368 5.0733716 21.912109 5.8164062 21.912109 L 20.080078 21.912109 C 21.12922 21.912109 22 21.044481 22 20 L 22 5.8007812 C 22 5.0614851 21.562543 4.4126434 20.935547 4.0957031 z M 10.947266 5.0546875 C 8.8388507 5.0546875 7.1132812 6.7720463 7.1132812 8.8710938 C 7.1132812 10.970141 8.8388507 12.689453 10.947266 12.689453 C 13.055682 12.689453 14.78125 10.970141 14.78125 8.8710938 C 14.78125 6.7720463 13.055682 5.0546875 10.947266 5.0546875 z M 10.947266 6.5820312 C 12.22729 6.5820312 13.248047 7.5967556 13.248047 8.8710938 C 13.248047 10.145432 12.22729 11.162109 10.947266 11.162109 C 9.6672403 11.162109 8.6464844 10.145432 8.6464844 8.8710938 C 8.6464844 7.5967556 9.6672403 6.5820313 10.947266 6.5820312 z M 10.947266 14.994141 C 13.455964 14.994141 15.96552 16.092793 17.363281 18.289062 L 4.5332031 18.289062 C 5.930964 16.092793 8.4385671 14.994141 10.947266 14.994141 z " />
</svg>
