<svg width="24" height="24" viewBox="0 0 24 24" version="1.1" xmlns="http://www.w3.org/2000/svg">
  <path d="M 5 3.25 C 4.0437432 3.25 3.25 4.0437432 3.25 5 L 3.25 19 C 3.25 19.956257 4.0437432 20.75 5 20.75 L 19 20.75 C 19.956257 20.75 20.75 19.956257 20.75 19 L 20.75 5 C 20.75 4.0437432 19.956257 3.25 19 3.25 L 5 3.25 z M 5 4.75 L 19 4.75 C 19.151741 4.75 19.25 4.8482592 19.25 5 L 19.25 18.021484 C 17.543176 15.665615 14.771669 14.486328 12 14.486328 C 9.228331 14.486328 6.456824 15.665615 4.75 18.021484 L 4.75 5 C 4.75 4.8482591 4.8482591 4.75 5 4.75 z M 12 6.25 C 9.9380901 6.25 8.25 7.9380901 8.25 10 C 8.25 12.06191 9.9380901 13.75 12 13.75 C 14.06191 13.75 15.75 12.06191 15.75 10 C 15.75 7.9380901 14.06191 6.25 12 6.25 z M 12 7.75 C 13.251792 7.75 14.25 8.7482082 14.25 10 C 14.25 11.251792 13.251792 12.25 12 12.25 C 10.748208 12.25 9.75 11.251792 9.75 10 C 9.75 8.7482082 10.748208 7.75 12 7.75 z M 12 16.013672 C 14.453364 16.013672 16.906507 17.092587 18.273438 19.25 L 5.7265625 19.25 C 7.0934931 17.092587 9.5466355 16.013672 12 16.013672 z " />
</svg>
